{"title":"Warren.S01E02.720p.iP.WEB.h264-MKJ","magnet":"magnet:?xt=urn:btih:033e22311019d3dffd4b69a74b024465f0948fa8&dn=Warren.S01E02.720p.iP.WEB.h264-MKJ&tr=udp%3A%2F%2Ftracker.leechers-paradise.org%3A6969&tr=udp%3A%2F%2Fzer0day.ch%3A1337&tr=udp%3A%2F%2Fopen.demonii.com%3A1337&tr=udp%3A%2F%2Ftracker.coppersurfer.tk%3A6969&tr=udp%3A%2F%2Fexodus.desync.com%3A6969","uploader":"M.KJ","categoryP":"video","categoryS":"hd___tv_shows","size":"1072863004","seeders":"14","leechers":"10","description":"Warren.S01E02.720p.iP.WEB.h264-MKJ.mkv\r\n\r\nFormat                      : Matroska\r\nFile size                   : 1 023 MiB\r\nDuration                    : 27mn 4s\r\nOverall bit rate            : 5 282 Kbps\r\nMovie name                  : The Rival\r\nDescription                 : Warren&apos;s rivalry with fellow driving instructor Daz gets out of hand.\r\nSHOW                        : Warren: Series 1\r\n\r\nVideo\r\nFormat                      : AVC\r\nDuration                    : 27mn 4s\r\nBit rate                    : 4 961 Kbps\r\nWidth                       : 1 280 pixels\r\nHeight                      : 720 pixels\r\nDisplay aspect ratio        : 16:9\r\nFrame rate mode             : Constant\r\nFrame rate                  : 50.000 fps\r\nColor space                 : YUV\r\nChroma subsampling          : 4:2:0\r\nBit depth                   : 8 bits\r\nScan type                   : Progressive\r\nBits/(Pixel*Frame)          : 0.108\r\nStream size                 : 961 MiB (94%)\r\nLanguage                    : English\r\n\r\nAudio\r\nFormat                      : AAC\r\nCodec ID                    : A_AAC\r\nDuration                    : 27mn 4s\r\nBit rate                    : 317 Kbps\r\nChannel(s)                  : 2 channels\r\nChannel positions           : Front: L R\r\nSampling rate               : 48.0 KHz\r\nFrame rate                  : 46.875 fps (1024 spf)\r\nCompression mode            : Lossy\r\nStream size                 : 61.5 MiB (6%)\r\nLanguage                    : English\r\nDefault                     : Yes\r\n\r\nText\r\nFormat                      : UTF-8\r\nCodec ID/Info               : UTF-8 Plain Text\r\nDuration                    : 26mn 26s\r\nBit rate                    : 236 bps\r\nStream size                 : 45.7 KiB (0%)\r\nLanguage                    : English","last_updated":"2019-03-05T10:27:40.380Z","parsed":{"xt":"urn:btih:033e22311019d3dffd4b69a74b024465f0948fa8","dn":"Warren.S01E02.720p.iP.WEB.h264-MKJ","tr":["udp://exodus.desync.com:6969","udp://open.demonii.com:1337","udp://tracker.coppersurfer.tk:6969","udp://tracker.leechers-paradise.org:6969","udp://zer0day.ch:1337"],"infoHash":"033e22311019d3dffd4b69a74b024465f0948fa8","infoHashBuffer":{"type":"Buffer","data":[3,62,34,49,16,25,211,223,253,75,105,167,75,2,68,101,240,148,143,168]},"name":"Warren.S01E02.720p.iP.WEB.h264-MKJ","announce":["udp://exodus.desync.com:6969","udp://open.demonii.com:1337","udp://tracker.coppersurfer.tk:6969","udp://tracker.leechers-paradise.org:6969","udp://zer0day.ch:1337"],"urlList":[]}}